# Export of BuildingBuild2
# from Aaro4130 OBJ Exporter v2.0
g MaterialMesh
v 1.820852 0.8853173 0.8056231
v 1.690411 0.8853173 0.8056231
v 1.690411 2.885317 0.8056231
v 1.820852 2.885317 0.8056231
v 1.820852 0.8853173 -1.194377
v 1.820852 0.8853173 0.8056231
v 1.820852 2.885317 0.8056231
v 1.820852 2.885317 -1.194377
v 1.690411 0.8853173 0.8056231
v 1.690411 0.8853173 -1.194377
v 1.690411 2.885317 -1.194377
v 1.690411 2.885317 0.8056231
v 1.690411 0.8853173 -1.194377
v 1.820852 0.8853173 -1.194377
v 1.820852 2.885317 -1.194377
v 1.690411 2.885317 -1.194377
v 1.820852 0.8853173 -1.194377
v 1.690411 0.8853173 -1.194377
v 1.690411 0.8853173 0.8056231
v 1.820852 0.8853173 0.8056231
v 1.820852 2.885317 -1.194377
v 1.820852 2.885317 0.8056231
v 1.690411 2.885317 0.8056231
v 1.690411 2.885317 -1.194377
vn 0 0 0.5773503
vn 0 0 0.5773503
vn 0 0 0.5773503
vn 0 0 0.5773503
vn 0.5773503 0 0
vn 0.5773503 0 0
vn 0.5773503 0 0
vn 0.5773503 0 0
vn -0.5773503 0 0
vn -0.5773503 0 0
vn -0.5773503 0 0
vn -0.5773503 0 0
vn 0 0 -0.5773503
vn 0 0 -0.5773503
vn 0 0 -0.5773503
vn 0 0 -0.5773503
vn 0 -0.5773503 0
vn 0 -0.5773503 0
vn 0 -0.5773503 0
vn 0 -0.5773503 0
vn 0 0.5773503 0
vn 0 0.5773503 0
vn 0 0.5773503 0
vn 0 0.5773503 0
vt 0.06522036 0
vt 0 0
vt 0 1
vt 0.06522036 1
vt 1 0
vt 0 0
vt 0 1
vt 1 1
vt 1 0
vt 0 0
vt 0 1
vt 1 1
vt 0.06522036 0
vt 0 0
vt 0 1
vt 0.06522036 1
vt 0 0.5000001
vt 0.06522036 0.5000001
vt 0.06522036 -0.5000001
vt 0 -0.5000001
vt 0 -0.5000002
vt 0 0.4999999
vt 0.06522036 0.4999999
vt 0.06522036 -0.5000002
usemtl Window 1
f 3/3/3 2/2/2 1/1/1
f 4/4/4 3/3/3 1/1/1
f 7/7/7 6/6/6 5/5/5
f 8/8/8 7/7/7 5/5/5
f 11/11/11 10/10/10 9/9/9
f 12/12/12 11/11/11 9/9/9
f 15/15/15 14/14/14 13/13/13
f 16/16/16 15/15/15 13/13/13
f 19/19/19 18/18/18 17/17/17
f 20/20/20 19/19/19 17/17/17
f 23/23/23 22/22/22 21/21/21
f 24/24/24 23/23/23 21/21/21
